<?xml version="1.0" encoding="UTF-8" standalone="no"?>
<svg
   xmlns:dc="http://purl.org/dc/elements/1.1/"
   xmlns:cc="http://creativecommons.org/ns#"
   xmlns:rdf="http://www.w3.org/1999/02/22-rdf-syntax-ns#"
   xmlns:svg="http://www.w3.org/2000/svg"
   xmlns="http://www.w3.org/2000/svg"
   xmlns:sodipodi="http://sodipodi.sourceforge.net/DTD/sodipodi-0.dtd"
   xmlns:inkscape="http://www.inkscape.org/namespaces/inkscape"
   inkscape:export-ydpi="768"
   inkscape:export-xdpi="768"
   inkscape:export-filename="D:\project\carlos\carlos flat crime\filled line crime\png\face scan.png"
   sodipodi:docname="sand clock.svg"
   inkscape:version="1.0 (4035a4fb49, 2020-05-01)"
   id="svg979"
   version="1.1"
   viewBox="0 0 16.933334 16.933333"
   height="48pt"
   width="48pt">
  <defs
     id="defs973" />
  <sodipodi:namedview
     inkscape:snap-nodes="false"
     inkscape:bbox-nodes="true"
     inkscape:snap-bbox="true"
     inkscape:document-rotation="0"
     inkscape:window-maximized="1"
     inkscape:window-y="-8"
     inkscape:window-x="-8"
     inkscape:window-height="706"
     inkscape:window-width="1366"
     units="pt"
     showgrid="false"
     inkscape:current-layer="layer1"
     inkscape:document-units="pt"
     inkscape:cy="32"
     inkscape:cx="32"
     inkscape:zoom="8.546875"
     inkscape:pageshadow="2"
     inkscape:pageopacity="0.0"
     borderopacity="1.0"
     bordercolor="#666666"
     pagecolor="#ffffff"
     id="base">
    <inkscape:grid
       id="grid1526"
       type="xygrid" />
    <sodipodi:guide
       inkscape:locked="false"
       id="guide1528"
       orientation="56.666615,0"
       position="0.97013909,15.963209" />
    <sodipodi:guide
       inkscape:locked="false"
       id="guide1530"
       orientation="0,56.666667"
       position="0.97013909,0.97016731" />
    <sodipodi:guide
       inkscape:locked="false"
       id="guide1532"
       orientation="-56.666615,0"
       position="15.963195,0.97016731" />
    <sodipodi:guide
       inkscape:locked="false"
       id="guide1534"
       orientation="0,-56.666667"
       position="15.963195,15.963209" />
  </sodipodi:namedview>
  <metadata
     id="metadata976">
    <rdf:RDF>
      <cc:Work
         rdf:about="">
        <dc:format>image/svg+xml</dc:format>
        <dc:type
           rdf:resource="http://purl.org/dc/dcmitype/StillImage" />
        <dc:title></dc:title>
      </cc:Work>
    </rdf:RDF>
  </metadata>
  <g
     transform="translate(0,-280.06668)"
     id="layer1"
     inkscape:groupmode="layer"
     inkscape:label="Layer 1">
    <g
       style="stroke-width:0.811733"
       transform="matrix(1.2319328,0,0,1.2319328,27.762586,-42.335691)"
       id="g1134">
      <path
         id="path1114"
         d="m -15.667969,268.2832 c -0.416448,9.3e-4 -0.7966,0.20373 -1.117187,0.50977 -0.320587,0.30604 -0.59302,0.72084 -0.822266,1.19922 -0.458492,0.95674 -0.740563,2.17218 -0.753906,3.3125 a 0.26460996,0.26460996 0 0 0 0,0.004 0.26460996,0.26460996 0 0 0 0.263672,0.26563 c 0,0 1.216923,7e-4 2.433594,0.002 0.608335,6.3e-4 1.217406,0.002 1.673828,0.002 0.22821,-4e-5 0.41729,-0.002 0.550781,-0.002 0.06675,-1.8e-4 0.119742,2.8e-4 0.15625,0 0.01825,-1.4e-4 0.03202,1.9e-4 0.04297,0 0.0034,-6e-5 0.0066,9e-5 0.0098,0 l 0.265625,-0.26758 c -0.01307,-1.14184 -0.295903,-2.36257 -0.755859,-3.32031 -0.229978,-0.47887 -0.50463,-0.89343 -0.826172,-1.19922 -0.321542,-0.30579 -0.703826,-0.5068 -1.121094,-0.50586 z"
         style="color:#000000;font-style:normal;font-variant:normal;font-weight:normal;font-stretch:normal;font-size:medium;line-height:normal;font-family:sans-serif;font-variant-ligatures:normal;font-variant-position:normal;font-variant-caps:normal;font-variant-numeric:normal;font-variant-alternates:normal;font-variant-east-asian:normal;font-feature-settings:normal;font-variation-settings:normal;text-indent:0;text-align:start;text-decoration:none;text-decoration-line:none;text-decoration-style:solid;text-decoration-color:#000000;letter-spacing:normal;word-spacing:normal;text-transform:none;writing-mode:lr-tb;direction:ltr;text-orientation:mixed;dominant-baseline:auto;baseline-shift:baseline;text-anchor:start;white-space:normal;shape-padding:0;shape-margin:0;inline-size:0;clip-rule:nonzero;display:inline;overflow:visible;visibility:visible;isolation:auto;mix-blend-mode:normal;color-interpolation:sRGB;color-interpolation-filters:linearRGB;solid-color:#000000;solid-opacity:1;vector-effect:none;fill:#f5f6e8;fill-opacity:1;fill-rule:nonzero;stroke:none;stroke-width:0.429542;stroke-linecap:round;stroke-linejoin:round;stroke-miterlimit:4;stroke-dasharray:none;stroke-dashoffset:0;stroke-opacity:1;color-rendering:auto;image-rendering:auto;shape-rendering:auto;text-rendering:auto;enable-background:accumulate;stop-color:#000000" />
      <path
         id="path1082"
         d="m -18.095703,263.55078 a 0.26460996,0.26460996 0 0 0 -0.265625,0.26563 c 0.0082,1.14427 0.288515,2.35497 0.748047,3.30468 0.229766,0.47486 0.504148,0.88667 0.826172,1.18946 0.322023,0.30279 0.702651,0.50102 1.11914,0.50195 0.416492,9.4e-4 0.798546,-0.19655 1.121094,-0.49805 0.322548,-0.3015 0.597712,-0.70969 0.828125,-1.18359 0.460826,-0.94781 0.743878,-2.15854 0.753906,-3.30274 a 0.26460996,0.26460996 0 0 0 -0.263672,-0.26757 z"
         style="color:#000000;font-style:normal;font-variant:normal;font-weight:normal;font-stretch:normal;font-size:medium;line-height:normal;font-family:sans-serif;font-variant-ligatures:normal;font-variant-position:normal;font-variant-caps:normal;font-variant-numeric:normal;font-variant-alternates:normal;font-variant-east-asian:normal;font-feature-settings:normal;font-variation-settings:normal;text-indent:0;text-align:start;text-decoration:none;text-decoration-line:none;text-decoration-style:solid;text-decoration-color:#000000;letter-spacing:normal;word-spacing:normal;text-transform:none;writing-mode:lr-tb;direction:ltr;text-orientation:mixed;dominant-baseline:auto;baseline-shift:baseline;text-anchor:start;white-space:normal;shape-padding:0;shape-margin:0;inline-size:0;clip-rule:nonzero;display:inline;overflow:visible;visibility:visible;isolation:auto;mix-blend-mode:normal;color-interpolation:sRGB;color-interpolation-filters:linearRGB;solid-color:#000000;solid-opacity:1;vector-effect:none;fill:#f5f6e8;fill-opacity:1;fill-rule:nonzero;stroke:none;stroke-width:0.429542;stroke-linecap:round;stroke-linejoin:round;stroke-miterlimit:4;stroke-dasharray:none;stroke-dashoffset:0;stroke-opacity:1;color-rendering:auto;image-rendering:auto;shape-rendering:auto;text-rendering:auto;enable-background:accumulate;stop-color:#000000" />
      <path
         sodipodi:nodetypes="ccccccsccc"
         d="m -18.095539,263.55087 c -0.146929,-5.6e-4 -0.266179,0.11869 -0.265617,0.26562 6.35e-4,0.0875 0.01935,0.45055 0.02315,0.53872 4.065427,0.0621 5.193879,1.3514 4.090288,3.30467 -0.149456,0.3074 -0.320147,0.58281 -0.507979,0.82373 0.07148,-0.0526 0.142152,-0.10723 0.208773,-0.1695 0.322548,-0.3015 0.59796,-0.70949 0.828373,-1.18339 0.460826,-0.94781 0.743415,-2.15844 0.753443,-3.30264 0.0017,-0.14693 -0.116614,-0.26711 -0.26355,-0.26769 z"
         style="color:#000000;font-style:normal;font-variant:normal;font-weight:normal;font-stretch:normal;font-size:medium;line-height:normal;font-family:sans-serif;font-variant-ligatures:normal;font-variant-position:normal;font-variant-caps:normal;font-variant-numeric:normal;font-variant-alternates:normal;font-variant-east-asian:normal;font-feature-settings:normal;font-variation-settings:normal;text-indent:0;text-align:start;text-decoration:none;text-decoration-line:none;text-decoration-style:solid;text-decoration-color:#000000;letter-spacing:normal;word-spacing:normal;text-transform:none;writing-mode:lr-tb;direction:ltr;text-orientation:mixed;dominant-baseline:auto;baseline-shift:baseline;text-anchor:start;white-space:normal;shape-padding:0;shape-margin:0;inline-size:0;clip-rule:nonzero;display:inline;overflow:visible;visibility:visible;isolation:auto;mix-blend-mode:normal;color-interpolation:sRGB;color-interpolation-filters:linearRGB;solid-color:#000000;solid-opacity:1;vector-effect:none;fill:#e3e3d6;fill-opacity:1;fill-rule:nonzero;stroke:none;stroke-width:0.429542;stroke-linecap:round;stroke-linejoin:round;stroke-miterlimit:4;stroke-dasharray:none;stroke-dashoffset:0;stroke-opacity:1;color-rendering:auto;image-rendering:auto;shape-rendering:auto;text-rendering:auto;enable-background:accumulate;stop-color:#000000"
         id="path1172" />
      <path
         id="path1038"
         d="m -19.896484,262.49219 c -0.435162,0 -0.792969,0.3578 -0.792969,0.79297 0,0.43516 0.357813,0.79492 0.792969,0.79492 h 8.466796 c 0.435156,0 0.792969,-0.35976 0.792969,-0.79492 0,-0.43517 -0.357807,-0.79297 -0.792969,-0.79297 z"
         style="color:#000000;font-style:normal;font-variant:normal;font-weight:normal;font-stretch:normal;font-size:medium;line-height:normal;font-family:sans-serif;font-variant-ligatures:normal;font-variant-position:normal;font-variant-caps:normal;font-variant-numeric:normal;font-variant-alternates:normal;font-variant-east-asian:normal;font-feature-settings:normal;font-variation-settings:normal;text-indent:0;text-align:start;text-decoration:none;text-decoration-line:none;text-decoration-style:solid;text-decoration-color:#000000;letter-spacing:normal;word-spacing:normal;text-transform:none;writing-mode:lr-tb;direction:ltr;text-orientation:mixed;dominant-baseline:auto;baseline-shift:baseline;text-anchor:start;white-space:normal;shape-padding:0;shape-margin:0;inline-size:0;clip-rule:nonzero;display:inline;overflow:visible;visibility:visible;isolation:auto;mix-blend-mode:normal;color-interpolation:sRGB;color-interpolation-filters:linearRGB;solid-color:#000000;solid-opacity:1;vector-effect:none;fill:#5b6571;fill-opacity:1;fill-rule:nonzero;stroke:none;stroke-width:0.429542;stroke-linecap:round;stroke-linejoin:round;stroke-miterlimit:4;stroke-dasharray:none;stroke-dashoffset:0;stroke-opacity:1;color-rendering:auto;image-rendering:auto;shape-rendering:auto;text-rendering:auto;enable-background:accumulate;stop-color:#000000" />
      <path
         d="m -15.66778,268.28342 c -0.416448,9.2e-4 -0.796657,0.20349 -1.117244,0.50953 -0.104349,0.0996 -0.20179,0.21428 -0.296106,0.33538 0.26647,-0.19417 0.56436,-0.31503 0.884184,-0.31575 0.417268,-9.5e-4 0.799319,0.20013 1.120861,0.50592 0.321542,0.30579 0.596329,0.72002 0.826307,1.19889 0.425044,0.88505 0.695747,1.99431 0.745174,3.05873 0.0173,-5e-5 0.04933,0 0.06511,0 0.06675,-1.8e-4 0.119555,2.9e-4 0.156063,0 0.01825,-1.4e-4 0.03246,1.9e-4 0.04341,0 0.0034,-6e-5 0.0066,9e-5 0.0098,0 l 0.265617,-0.26717 c -0.01307,-1.14184 -0.296071,-2.36299 -0.756027,-3.32073 -0.229978,-0.47887 -0.504764,-0.8931 -0.826306,-1.19889 -0.321542,-0.30579 -0.703594,-0.50685 -1.120863,-0.50591 z"
         style="color:#000000;font-style:normal;font-variant:normal;font-weight:normal;font-stretch:normal;font-size:medium;line-height:normal;font-family:sans-serif;font-variant-ligatures:normal;font-variant-position:normal;font-variant-caps:normal;font-variant-numeric:normal;font-variant-alternates:normal;font-variant-east-asian:normal;font-feature-settings:normal;font-variation-settings:normal;text-indent:0;text-align:start;text-decoration:none;text-decoration-line:none;text-decoration-style:solid;text-decoration-color:#000000;letter-spacing:normal;word-spacing:normal;text-transform:none;writing-mode:lr-tb;direction:ltr;text-orientation:mixed;dominant-baseline:auto;baseline-shift:baseline;text-anchor:start;white-space:normal;shape-padding:0;shape-margin:0;inline-size:0;clip-rule:nonzero;display:inline;overflow:visible;visibility:visible;isolation:auto;mix-blend-mode:normal;color-interpolation:sRGB;color-interpolation-filters:linearRGB;solid-color:#000000;solid-opacity:1;vector-effect:none;fill:#e3e3d6;fill-opacity:1;fill-rule:nonzero;stroke:none;stroke-width:0.429542;stroke-linecap:round;stroke-linejoin:round;stroke-miterlimit:4;stroke-dasharray:none;stroke-dashoffset:0;stroke-opacity:1;color-rendering:auto;image-rendering:auto;shape-rendering:auto;text-rendering:auto;enable-background:accumulate;stop-color:#000000"
         id="path1187" />
      <path
         id="path1097"
         d="m -16.699219,265.92188 c -0.367245,-0.01 -0.731061,0.047 -1.070312,0.24414 a 0.26460996,0.26460996 0 0 0 -0.117188,0.31836 c 0.145508,0.39784 0.398222,0.95755 0.757813,1.43554 0.359591,0.47799 0.847815,0.90187 1.466797,0.89258 a 0.26460996,0.26460996 0 0 0 0.0039,0 c 0.613574,-0.0205 1.095101,-0.40128 1.451172,-0.87305 0.35607,-0.47176 0.612043,-1.04939 0.8125,-1.56836 a 0.26460996,0.26460996 0 0 0 -0.375,-0.32617 c -0.488943,0.27164 -1.13032,0.16489 -1.837891,0.0293 -0.353786,-0.0678 -0.724552,-0.14281 -1.091797,-0.15234 z"
         style="color:#000000;font-style:normal;font-variant:normal;font-weight:normal;font-stretch:normal;font-size:medium;line-height:normal;font-family:sans-serif;font-variant-ligatures:normal;font-variant-position:normal;font-variant-caps:normal;font-variant-numeric:normal;font-variant-alternates:normal;font-variant-east-asian:normal;font-feature-settings:normal;font-variation-settings:normal;text-indent:0;text-align:start;text-decoration:none;text-decoration-line:none;text-decoration-style:solid;text-decoration-color:#000000;letter-spacing:normal;word-spacing:normal;text-transform:none;writing-mode:lr-tb;direction:ltr;text-orientation:mixed;dominant-baseline:auto;baseline-shift:baseline;text-anchor:start;white-space:normal;shape-padding:0;shape-margin:0;inline-size:0;clip-rule:nonzero;display:inline;overflow:visible;visibility:visible;isolation:auto;mix-blend-mode:normal;color-interpolation:sRGB;color-interpolation-filters:linearRGB;solid-color:#000000;solid-opacity:1;vector-effect:none;fill:#fed883;fill-opacity:1;fill-rule:nonzero;stroke:none;stroke-width:0.429542;stroke-linecap:round;stroke-linejoin:round;stroke-miterlimit:4;stroke-dasharray:none;stroke-dashoffset:0;stroke-opacity:1;color-rendering:auto;image-rendering:auto;shape-rendering:auto;text-rendering:auto;enable-background:accumulate;stop-color:#000000" />
      <path
         d="m -16.699239,265.92179 c -0.367245,-0.01 -0.730968,0.0473 -1.070219,0.24443 a 0.26460995,0.26460995 0 0 0 -0.117305,0.31833 c 0.0256,0.07 0.05871,0.14971 0.09095,0.22841 a 0.26460995,0.26460995 0 0 1 0.02635,-0.0176 c 0.339251,-0.19714 0.702974,-0.25443 1.070219,-0.24443 0.367245,0.01 0.738137,0.0846 1.091923,0.15244 0.707571,0.1356 1.348671,0.24219 1.837614,-0.0294 a 0.26460995,0.26460995 0 0 1 0.285254,0.0191 c 0.03026,-0.0743 0.06194,-0.14977 0.08992,-0.22221 a 0.26460995,0.26460995 0 0 0 -0.375171,-0.32608 c -0.488943,0.27164 -1.130043,0.16505 -1.837614,0.0295 -0.353786,-0.0678 -0.724678,-0.14292 -1.091923,-0.15245 z"
         style="color:#000000;font-style:normal;font-variant:normal;font-weight:normal;font-stretch:normal;font-size:medium;line-height:normal;font-family:sans-serif;font-variant-ligatures:normal;font-variant-position:normal;font-variant-caps:normal;font-variant-numeric:normal;font-variant-alternates:normal;font-variant-east-asian:normal;font-feature-settings:normal;font-variation-settings:normal;text-indent:0;text-align:start;text-decoration:none;text-decoration-line:none;text-decoration-style:solid;text-decoration-color:#000000;letter-spacing:normal;word-spacing:normal;text-transform:none;writing-mode:lr-tb;direction:ltr;text-orientation:mixed;dominant-baseline:auto;baseline-shift:baseline;text-anchor:start;white-space:normal;shape-padding:0;shape-margin:0;inline-size:0;clip-rule:nonzero;display:inline;overflow:visible;visibility:visible;isolation:auto;mix-blend-mode:normal;color-interpolation:sRGB;color-interpolation-filters:linearRGB;solid-color:#000000;solid-opacity:1;vector-effect:none;fill:#febe40;fill-opacity:1;fill-rule:nonzero;stroke:none;stroke-width:0.429542;stroke-linecap:round;stroke-linejoin:round;stroke-miterlimit:4;stroke-dasharray:none;stroke-dashoffset:0;stroke-opacity:1;color-rendering:auto;image-rendering:auto;shape-rendering:auto;text-rendering:auto;enable-background:accumulate;stop-color:#000000"
         id="path1182" />
      <path
         id="path1130"
         d="m -15.455078,271.73242 c -0.339061,-0.0481 -0.649699,0.0599 -0.908203,0.22266 -0.517009,0.32549 -0.912574,0.85971 -1.306641,1.14258 a 0.26460996,0.26460996 0 0 0 0.154297,0.48046 h 3.705078 a 0.26460996,0.26460996 0 0 0 0.220703,-0.4121 c -0.07373,-0.11139 -0.181942,-0.22035 -0.335937,-0.37696 -0.148199,-0.15071 -0.324827,-0.31745 -0.492188,-0.45703 -5.03e-4,-5e-4 -0.0015,5e-4 -0.002,0 -0.355786,-0.35537 -0.696574,-0.55159 -1.035156,-0.59961 z"
         style="color:#000000;font-style:normal;font-variant:normal;font-weight:normal;font-stretch:normal;font-size:medium;line-height:normal;font-family:sans-serif;font-variant-ligatures:normal;font-variant-position:normal;font-variant-caps:normal;font-variant-numeric:normal;font-variant-alternates:normal;font-variant-east-asian:normal;font-feature-settings:normal;font-variation-settings:normal;text-indent:0;text-align:start;text-decoration:none;text-decoration-line:none;text-decoration-style:solid;text-decoration-color:#000000;letter-spacing:normal;word-spacing:normal;text-transform:none;writing-mode:lr-tb;direction:ltr;text-orientation:mixed;dominant-baseline:auto;baseline-shift:baseline;text-anchor:start;white-space:normal;shape-padding:0;shape-margin:0;inline-size:0;clip-rule:nonzero;display:inline;overflow:visible;visibility:visible;isolation:auto;mix-blend-mode:normal;color-interpolation:sRGB;color-interpolation-filters:linearRGB;solid-color:#000000;solid-opacity:1;vector-effect:none;fill:#fed883;fill-opacity:1;fill-rule:nonzero;stroke:none;stroke-width:0.429542;stroke-linecap:round;stroke-linejoin:round;stroke-miterlimit:4;stroke-dasharray:none;stroke-dashoffset:0;stroke-opacity:1;color-rendering:auto;image-rendering:auto;shape-rendering:auto;text-rendering:auto;enable-background:accumulate;stop-color:#000000" />
      <path
         d="m -15.580963,271.72146 c -0.290136,-0.009 -0.55619,0.0912 -0.782381,0.23358 -0.517009,0.32549 -0.912313,0.85969 -1.30638,1.14256 a 0.26460995,0.26460995 0 0 0 0.07648,0.46871 c 0.369223,-0.29319 0.746339,-0.77767 1.229899,-1.08211 0.258504,-0.16276 0.569411,-0.27082 0.908472,-0.22272 0.338582,0.048 0.679293,0.24459 1.035079,0.59996 5.03e-4,5e-4 0.0016,-5e-4 0.0021,0 0.167361,0.13958 0.34376,0.30611 0.491959,0.45682 0.09128,0.0928 0.161781,0.16742 0.223243,0.2372 7.6e-5,8e-5 4.49e-4,-9e-5 5.29e-4,0 a 0.26460995,0.26460995 0 0 0 0.112138,-0.38964 c -0.07373,-0.11139 -0.181902,-0.22012 -0.335897,-0.37673 -0.148199,-0.15071 -0.324599,-0.31723 -0.49196,-0.45681 -5.03e-4,-5.1e-4 -0.0016,5e-4 -0.0021,0 -0.355786,-0.35537 -0.696497,-0.55195 -1.035079,-0.59997 -0.04238,-0.006 -0.08464,-0.01 -0.12609,-0.0109 z"
         style="color:#000000;font-style:normal;font-variant:normal;font-weight:normal;font-stretch:normal;font-size:medium;line-height:normal;font-family:sans-serif;font-variant-ligatures:normal;font-variant-position:normal;font-variant-caps:normal;font-variant-numeric:normal;font-variant-alternates:normal;font-variant-east-asian:normal;font-feature-settings:normal;font-variation-settings:normal;text-indent:0;text-align:start;text-decoration:none;text-decoration-line:none;text-decoration-style:solid;text-decoration-color:#000000;letter-spacing:normal;word-spacing:normal;text-transform:none;writing-mode:lr-tb;direction:ltr;text-orientation:mixed;dominant-baseline:auto;baseline-shift:baseline;text-anchor:start;white-space:normal;shape-padding:0;shape-margin:0;inline-size:0;clip-rule:nonzero;display:inline;overflow:visible;visibility:visible;isolation:auto;mix-blend-mode:normal;color-interpolation:sRGB;color-interpolation-filters:linearRGB;solid-color:#000000;solid-opacity:1;vector-effect:none;fill:#febe40;fill-opacity:1;fill-rule:nonzero;stroke:none;stroke-width:0.429542;stroke-linecap:round;stroke-linejoin:round;stroke-miterlimit:4;stroke-dasharray:none;stroke-dashoffset:0;stroke-opacity:1;color-rendering:auto;image-rendering:auto;shape-rendering:auto;text-rendering:auto;enable-background:accumulate;stop-color:#000000"
         id="path1192" />
      <path
         id="path1058"
         d="m -19.896484,273.04688 c -0.435156,-10e-6 -0.792969,0.3578 -0.792969,0.79296 0,0.43517 0.357807,0.79297 0.792969,0.79297 h 8.466796 c 0.435162,0 0.792969,-0.3578 0.792969,-0.79297 0,-0.43516 -0.357813,-0.79297 -0.792969,-0.79296 z"
         style="color:#000000;font-style:normal;font-variant:normal;font-weight:normal;font-stretch:normal;font-size:medium;line-height:normal;font-family:sans-serif;font-variant-ligatures:normal;font-variant-position:normal;font-variant-caps:normal;font-variant-numeric:normal;font-variant-alternates:normal;font-variant-east-asian:normal;font-feature-settings:normal;font-variation-settings:normal;text-indent:0;text-align:start;text-decoration:none;text-decoration-line:none;text-decoration-style:solid;text-decoration-color:#000000;letter-spacing:normal;word-spacing:normal;text-transform:none;writing-mode:lr-tb;direction:ltr;text-orientation:mixed;dominant-baseline:auto;baseline-shift:baseline;text-anchor:start;white-space:normal;shape-padding:0;shape-margin:0;inline-size:0;clip-rule:nonzero;display:inline;overflow:visible;visibility:visible;isolation:auto;mix-blend-mode:normal;color-interpolation:sRGB;color-interpolation-filters:linearRGB;solid-color:#000000;solid-opacity:1;vector-effect:none;fill:#5b6571;fill-opacity:1;fill-rule:nonzero;stroke:none;stroke-width:0.429542;stroke-linecap:round;stroke-linejoin:round;stroke-miterlimit:4;stroke-dasharray:none;stroke-dashoffset:0;stroke-opacity:1;color-rendering:auto;image-rendering:auto;shape-rendering:auto;text-rendering:auto;enable-background:accumulate;stop-color:#000000" />
      <path
         d="m -19.89646,273.07541 c -0.356115,0 -0.656704,0.24135 -0.755509,0.56689 0.07226,-0.0219 0.147296,-0.0377 0.226343,-0.0377 h 8.466666 c 0.435162,0 0.793233,0.35806 0.793233,0.79323 0,0.0798 -0.01591,0.15544 -0.03824,0.22841 0.325817,-0.0991 0.567407,-0.40126 0.567407,-0.75757 0,-0.43517 -0.358071,-0.79324 -0.793233,-0.79324 z"
         style="color:#000000;font-style:normal;font-variant:normal;font-weight:normal;font-stretch:normal;font-size:medium;line-height:normal;font-family:sans-serif;font-variant-ligatures:normal;font-variant-position:normal;font-variant-caps:normal;font-variant-numeric:normal;font-variant-alternates:normal;font-variant-east-asian:normal;font-feature-settings:normal;font-variation-settings:normal;text-indent:0;text-align:start;text-decoration:none;text-decoration-line:none;text-decoration-style:solid;text-decoration-color:#000000;letter-spacing:normal;word-spacing:normal;text-transform:none;writing-mode:lr-tb;direction:ltr;text-orientation:mixed;dominant-baseline:auto;baseline-shift:baseline;text-anchor:start;white-space:normal;shape-padding:0;shape-margin:0;inline-size:0;clip-rule:nonzero;display:inline;overflow:visible;visibility:visible;isolation:auto;mix-blend-mode:normal;color-interpolation:sRGB;color-interpolation-filters:linearRGB;solid-color:#000000;solid-opacity:1;vector-effect:none;fill:#0f2437;fill-opacity:1;fill-rule:nonzero;stroke:none;stroke-width:0.429542;stroke-linecap:round;stroke-linejoin:round;stroke-miterlimit:4;stroke-dasharray:none;stroke-dashoffset:0;stroke-opacity:1;color-rendering:auto;image-rendering:auto;shape-rendering:auto;text-rendering:auto;enable-background:accumulate;stop-color:#000000"
         id="path1165" />
      <path
         id="path1170"
         style="color:#000000;font-style:normal;font-variant:normal;font-weight:normal;font-stretch:normal;font-size:medium;line-height:normal;font-family:sans-serif;font-variant-ligatures:normal;font-variant-position:normal;font-variant-caps:normal;font-variant-numeric:normal;font-variant-alternates:normal;font-variant-east-asian:normal;font-feature-settings:normal;font-variation-settings:normal;text-indent:0;text-align:start;text-decoration:none;text-decoration-line:none;text-decoration-style:solid;text-decoration-color:#000000;letter-spacing:normal;word-spacing:normal;text-transform:none;writing-mode:lr-tb;direction:ltr;text-orientation:mixed;dominant-baseline:auto;baseline-shift:baseline;text-anchor:start;white-space:normal;shape-padding:0;shape-margin:0;inline-size:0;clip-rule:nonzero;display:inline;overflow:visible;visibility:visible;isolation:auto;mix-blend-mode:normal;color-interpolation:sRGB;color-interpolation-filters:linearRGB;solid-color:#000000;solid-opacity:1;vector-effect:none;fill:#0f2437;fill-opacity:1;fill-rule:nonzero;stroke:none;stroke-width:0.429542;stroke-linecap:round;stroke-linejoin:round;stroke-miterlimit:4;stroke-dasharray:none;stroke-dashoffset:0;stroke-opacity:1;color-rendering:auto;image-rendering:auto;shape-rendering:auto;text-rendering:auto;enable-background:accumulate;stop-color:#000000"
         d="m -19.89646,262.49201 c -0.356115,0 -0.656704,0.24135 -0.755509,0.56689 0.07226,-0.0219 0.147296,-0.0377 0.226343,-0.0377 h 8.466666 c 0.435162,0 0.793233,0.35806 0.793233,0.79323 0,0.0798 -0.01591,0.15544 -0.03824,0.22841 0.325817,-0.0991 0.567407,-0.40126 0.567407,-0.75757 0,-0.43517 -0.358071,-0.79324 -0.793233,-0.79324 z" />
      <path
         d="m -13.641027,266.01223 a 0.26460995,0.26460995 0 0 0 -0.128675,0.0326 c -0.03504,0.0195 -0.07246,0.0329 -0.109037,0.0486 0.0912,0.45209 -0.03697,0.9787 -0.36897,1.56631 -0.149456,0.3074 -0.320147,0.5828 -0.507979,0.82372 0.07148,-0.0526 0.142152,-0.10722 0.208773,-0.16949 0.141556,-0.13232 0.272262,-0.28795 0.395841,-0.45786 0.05419,-0.0759 0.107035,-0.15304 0.15658,-0.23306 0.01683,-0.0268 0.03419,-0.0527 0.05064,-0.0801 0.137501,-0.23209 0.256345,-0.47606 0.362252,-0.7183 0.07437,-0.1758 0.142424,-0.35858 0.204638,-0.54674 a 0.26460995,0.26460995 0 0 0 -0.264066,-0.26561 z"
         style="color:#000000;font-style:normal;font-variant:normal;font-weight:normal;font-stretch:normal;font-size:medium;line-height:normal;font-family:sans-serif;font-variant-ligatures:normal;font-variant-position:normal;font-variant-caps:normal;font-variant-numeric:normal;font-variant-alternates:normal;font-variant-east-asian:normal;font-feature-settings:normal;font-variation-settings:normal;text-indent:0;text-align:start;text-decoration:none;text-decoration-line:none;text-decoration-style:solid;text-decoration-color:#000000;letter-spacing:normal;word-spacing:normal;text-transform:none;writing-mode:lr-tb;direction:ltr;text-orientation:mixed;dominant-baseline:auto;baseline-shift:baseline;text-anchor:start;white-space:normal;shape-padding:0;shape-margin:0;inline-size:0;clip-rule:nonzero;display:inline;overflow:visible;visibility:visible;isolation:auto;mix-blend-mode:normal;color-interpolation:sRGB;color-interpolation-filters:linearRGB;solid-color:#000000;solid-opacity:1;vector-effect:none;fill:#febe40;fill-opacity:1;fill-rule:nonzero;stroke:none;stroke-width:0.429542;stroke-linecap:round;stroke-linejoin:round;stroke-miterlimit:4;stroke-dasharray:none;stroke-dashoffset:0;stroke-opacity:1;color-rendering:auto;image-rendering:auto;shape-rendering:auto;text-rendering:auto;enable-background:accumulate;stop-color:#000000"
         id="path1177" />
      <path
         id="path1204"
         d="m -20.162077,264.03359 v 0.52503 h 0.529168 v -0.50953 z"
         style="color:#000000;font-style:normal;font-variant:normal;font-weight:normal;font-stretch:normal;font-size:medium;line-height:normal;font-family:sans-serif;font-variant-ligatures:normal;font-variant-position:normal;font-variant-caps:normal;font-variant-numeric:normal;font-variant-alternates:normal;font-variant-east-asian:normal;font-feature-settings:normal;font-variation-settings:normal;text-indent:0;text-align:start;text-decoration:none;text-decoration-line:none;text-decoration-style:solid;text-decoration-color:#000000;letter-spacing:normal;word-spacing:normal;text-transform:none;writing-mode:lr-tb;direction:ltr;text-orientation:mixed;dominant-baseline:auto;baseline-shift:baseline;text-anchor:start;white-space:normal;shape-padding:0;shape-margin:0;inline-size:0;clip-rule:nonzero;display:inline;overflow:visible;visibility:visible;isolation:auto;mix-blend-mode:normal;color-interpolation:sRGB;color-interpolation-filters:linearRGB;solid-color:#000000;solid-opacity:1;vector-effect:none;fill:#0f2437;fill-opacity:1;fill-rule:nonzero;stroke:none;stroke-width:0.429541;stroke-linecap:round;stroke-linejoin:round;stroke-miterlimit:4;stroke-dasharray:none;stroke-dashoffset:0;stroke-opacity:1;color-rendering:auto;image-rendering:auto;shape-rendering:auto;text-rendering:auto;enable-background:accumulate;stop-color:#000000" />
      <path
         style="color:#000000;font-style:normal;font-variant:normal;font-weight:normal;font-stretch:normal;font-size:medium;line-height:normal;font-family:sans-serif;font-variant-ligatures:normal;font-variant-position:normal;font-variant-caps:normal;font-variant-numeric:normal;font-variant-alternates:normal;font-variant-east-asian:normal;font-feature-settings:normal;font-variation-settings:normal;text-indent:0;text-align:start;text-decoration:none;text-decoration-line:none;text-decoration-style:solid;text-decoration-color:#000000;letter-spacing:normal;word-spacing:normal;text-transform:none;writing-mode:lr-tb;direction:ltr;text-orientation:mixed;dominant-baseline:auto;baseline-shift:baseline;text-anchor:start;white-space:normal;shape-padding:0;shape-margin:0;inline-size:0;clip-rule:nonzero;display:inline;overflow:visible;visibility:visible;isolation:auto;mix-blend-mode:normal;color-interpolation:sRGB;color-interpolation-filters:linearRGB;solid-color:#000000;solid-opacity:1;vector-effect:none;fill:#0f2437;fill-opacity:1;fill-rule:nonzero;stroke:none;stroke-width:0.429541;stroke-linecap:round;stroke-linejoin:round;stroke-miterlimit:4;stroke-dasharray:none;stroke-dashoffset:0;stroke-opacity:1;color-rendering:auto;image-rendering:auto;shape-rendering:auto;text-rendering:auto;enable-background:accumulate;stop-color:#000000"
         d="m -11.695405,264.03359 v 0.52503 h 0.529168 v -0.50953 z"
         id="path1206" />
      <path
         d="m -19.89646,262.49203 c -0.435162,0 -0.793233,0.35806 -0.793233,0.79323 0,0.34174 0.222111,0.63416 0.527616,0.74518 v 9.09557 c -0.305451,0.11052 -0.527616,0.4014 -0.527616,0.7431 0,0.43516 0.358071,0.79324 0.793233,0.79324 h 8.466667 c 0.435162,0 0.793233,-0.35808 0.793233,-0.79324 0,-0.3425 -0.223121,-0.63421 -0.529683,-0.74414 v -9.09402 c 0.306539,-0.11045 0.529683,-0.4032 0.529683,-0.74569 0,-0.43517 -0.358071,-0.79323 -0.793233,-0.79323 z m 0,0.52968 h 8.466667 c 0.151155,0 0.26355,0.11239 0.26355,0.26355 0,0.15115 -0.112389,0.26562 -0.26355,0.26562 h -8.466667 c -0.151161,0 -0.265617,-0.11447 -0.265617,-0.26562 0,-0.15116 0.114462,-0.26355 0.265617,-0.26355 z m 0.26355,1.05834 h 1.281059 c 0.03417,0.80037 0.194513,1.61905 0.453202,2.34972 a 0.26458349,0.26458349 0 0 0 0.03359,0.0977 0.26458349,0.26458349 0 0 0 0.0072,0.0114 c 0.07501,0.20159 0.155242,0.39807 0.24443,0.5824 0.229766,0.47486 0.504282,0.8868 0.826306,1.18959 0.09651,0.0907 0.198979,0.17031 0.305407,0.23978 -0.107202,0.0713 -0.210471,0.15344 -0.307474,0.24649 -0.32164,0.30854 -0.594776,0.72682 -0.824239,1.20871 -0.424205,0.89087 -0.693254,2.00358 -0.738457,3.07062 h -1.281055 z m 1.861385,0 4.216797,0.01 c -0.03375,0.6752 -0.14415,1.37761 -0.33383,2.00814 -0.4722,0.19783 -1.06651,0.10122 -1.718758,-0.0238 -0.353786,-0.0678 -0.724678,-0.14291 -1.091923,-0.15244 -0.257406,-0.007 -0.512367,0.0224 -0.759127,0.10645 -0.177718,-0.61544 -0.281384,-1.29431 -0.313159,-1.94769 z m 4.797123,0 h 1.278992 v 8.99635 h -1.278992 c -0.04526,-1.07034 -0.315612,-2.18596 -0.74259,-3.07837 -0.230107,-0.48094 -0.505693,-0.89783 -0.827856,-1.20509 -0.09578,-0.0913 -0.19754,-0.17201 -0.303341,-0.24237 0.105016,-0.0685 0.205995,-0.1471 0.301273,-0.23616 0.322548,-0.3015 0.597961,-0.70949 0.828374,-1.18339 0.106972,-0.22001 0.202765,-0.45546 0.289388,-0.6997 a 0.26458349,0.26458349 0 0 0 0.05168,-0.15192 c 0.229036,-0.69198 0.371127,-1.45366 0.403076,-2.19935 z m -3.723803,2.37711 c 0.30307,0.009 0.637144,0.0686 0.991154,0.13643 0.51233,0.0982 1.06461,0.20879 1.596285,0.11679 -0.02729,0.0632 -0.05332,0.12772 -0.08268,0.1881 -0.209877,0.43167 -0.458561,0.78998 -0.714685,1.02939 -0.256126,0.23942 -0.50882,0.3561 -0.758094,0.35554 -0.249275,-5.6e-4 -0.50158,-0.11845 -0.757576,-0.35915 -0.255996,-0.24071 -0.50378,-0.60085 -0.713135,-1.03353 -0.05549,-0.11468 -0.105923,-0.2359 -0.153996,-0.36019 0.179889,-0.0591 0.378046,-0.0799 0.592729,-0.0734 z m 1.030428,2.35541 c 5.29e-4,1e-5 10e-4,0 0.0016,0 0.247331,-5.5e-4 0.499516,0.11865 0.756026,0.36329 0.256509,0.24465 0.504502,0.60922 0.714685,1.04851 0.384163,0.80292 0.591919,1.85779 0.640788,2.84014 l -0.130741,5.3e-4 c -0.0647,-0.0756 -0.139603,-0.15598 -0.240296,-0.25838 -0.148199,-0.15071 -0.324599,-0.31724 -0.49196,-0.45682 -5.02e-4,-5e-4 -0.0016,5e-4 -0.0021,0 -0.355786,-0.35537 -0.696497,-0.55195 -1.035079,-0.59996 -0.339061,-0.0481 -0.649967,0.06 -0.908471,0.22272 -0.495301,0.31182 -0.878927,0.81286 -1.256771,1.10329 l -0.151412,5.3e-4 c 0.04707,-0.98311 0.251641,-2.03845 0.635103,-2.84375 0.209659,-0.4403 0.458306,-0.80723 0.714685,-1.05317 0.255853,-0.24543 0.507115,-0.36586 0.753959,-0.3669 z m 0.0036,0.53899 a 0.26458349,0.26458349 0 0 0 -0.26355,0.26355 v 0.26562 a 0.26458349,0.26458349 0 0 0 0.26355,0.26355 0.26458349,0.26458349 0 0 0 0.265617,-0.26355 v -0.26562 a 0.26458349,0.26458349 0 0 0 -0.265617,-0.26355 z m 0,1.20303 a 0.26458349,0.26458349 0 0 0 -0.26355,0.26561 v 0.26355 a 0.26458349,0.26458349 0 0 0 0.26355,0.26562 0.26458349,0.26458349 0 0 0 0.265617,-0.26562 v -0.26355 a 0.26458349,0.26458349 0 0 0 -0.265617,-0.26561 z m -0.0046,1.71514 c 0.04558,-0.003 0.09169,-10e-4 0.139526,0.006 0.191329,0.0271 0.431261,0.14394 0.736389,0.44907 a 0.26460995,0.26460995 0 0 0 0.01964,0.0155 c 0.112296,0.0925 0.234478,0.21258 0.3514,0.3266 h -2.392623 c 0.245642,-0.23985 0.513796,-0.5061 0.734322,-0.64493 0.1442,-0.0908 0.274594,-0.14291 0.411345,-0.15192 z m -4.227649,1.33583 h 8.466662 c 0.151161,0 0.26355,0.11239 0.26355,0.26355 0,0.15116 -0.112395,0.26355 -0.26355,0.26355 h -8.466667 c -0.151155,0 -0.265617,-0.11239 -0.265617,-0.26355 0,-0.15116 0.114456,-0.26355 0.265617,-0.26355 z"
         style="color:#000000;font-style:normal;font-variant:normal;font-weight:normal;font-stretch:normal;font-size:medium;line-height:normal;font-family:sans-serif;font-variant-ligatures:normal;font-variant-position:normal;font-variant-caps:normal;font-variant-numeric:normal;font-variant-alternates:normal;font-variant-east-asian:normal;font-feature-settings:normal;font-variation-settings:normal;text-indent:0;text-align:start;text-decoration:none;text-decoration-line:none;text-decoration-style:solid;text-decoration-color:#000000;letter-spacing:normal;word-spacing:normal;text-transform:none;writing-mode:lr-tb;direction:ltr;text-orientation:mixed;dominant-baseline:auto;baseline-shift:baseline;text-anchor:start;white-space:normal;shape-padding:0;shape-margin:0;inline-size:0;clip-rule:nonzero;display:inline;overflow:visible;visibility:visible;opacity:1;isolation:auto;mix-blend-mode:normal;color-interpolation:sRGB;color-interpolation-filters:linearRGB;solid-color:#000000;solid-opacity:1;vector-effect:none;fill:#000000;fill-opacity:1;fill-rule:nonzero;stroke:none;stroke-width:0.429542;stroke-linecap:round;stroke-linejoin:round;stroke-miterlimit:4;stroke-dasharray:none;stroke-dashoffset:0;stroke-opacity:1;color-rendering:auto;image-rendering:auto;shape-rendering:auto;text-rendering:auto;enable-background:accumulate;stop-color:#000000;stop-opacity:1"
         id="path1059" />
    </g>
  </g>
</svg>
